<svg id="Logo" xmlns="http://www.w3.org/2000/svg" viewBox="0 0 483.5 224.01"><defs><style>.cls-1{font-size:75.24px;font-family:FugazOne-Regular, Fugaz One;}.cls-1,.cls-8{fill:#1a1a1a;}.cls-2{letter-spacing:0em;}.cls-3{font-size:65.85px;font-family:SecularOne-Regular, Secular One;}.cls-3,.cls-7{fill:#eb6e15;}.cls-4{letter-spacing:0.01em;}.cls-5{letter-spacing:0em;}.cls-6{letter-spacing:0em;}</style></defs><text class="cls-1" transform="translate(162.77 106.79) scale(1.23 1)"><tspan class="cls-2">R</tspan><tspan x="48.98" y="0">aptor</tspan></text><text class="cls-3" transform="translate(156.66 171.31) scale(1.72 1)"><tspan class="cls-4">D</tspan><tspan class="cls-5" x="45.63" y="0">e</tspan><tspan class="cls-6" x="82.7" y="0">v</tspan><tspan x="118.39" y="0">s</tspan></text><path class="cls-7" d="M111.42,174.18a36.65,36.65,0,1,0,17.72,48.7A36.65,36.65,0,0,0,111.42,174.18Zm-25.19,54a23,23,0,1,1,30.5-11.1A22.95,22.95,0,0,1,86.23,228.2Z" transform="translate(-32.17 -20.03)"/><path class="cls-7" d="M84.31,23.48A36.64,36.64,0,1,0,102,72.17,36.64,36.64,0,0,0,84.31,23.48Zm-25.19,54a23,23,0,1,1,30.5-11.1A22.95,22.95,0,0,1,59.12,77.49Z" transform="translate(-32.17 -20.03)"/><path class="cls-7" d="M156.14,87.31,149.06,84,101.7,61.93a5.24,5.24,0,0,0-7,2.53l-3.3,7.08a5.23,5.23,0,0,0,2.54,7l42.61,19.88L99.8,177.26a5.23,5.23,0,0,0,2.53,7l7.08,3.3a5.23,5.23,0,0,0,7-2.53l39-83.63,3.3-7.08A5.24,5.24,0,0,0,156.14,87.31Z" transform="translate(-32.17 -20.03)"/><path class="cls-8" d="M193.38,75.87a3.24,3.24,0,0,0-.75-.49l-55.4-25.84a3.43,3.43,0,0,0-4.54,1.65l-5.94,12.74a3.42,3.42,0,0,0,1.65,4.54l39.95,18.62-40.29,86.39a3.43,3.43,0,0,0,1.65,4.54L142.45,184a3.41,3.41,0,0,0,4.54-1.65L194.62,80.16A3.4,3.4,0,0,0,193.38,75.87Z" transform="translate(-32.17 -20.03)"/><path class="cls-8" d="M125.68,99.92,97.41,86.74a3.41,3.41,0,0,0-4.54,1.65l-5.94,12.74a3.41,3.41,0,0,0,1.65,4.53L101,111.44,81.62,153a3.42,3.42,0,0,0,1.65,4.53L96,163.44a3.41,3.41,0,0,0,4.54-1.65l20.64-44.26a3.79,3.79,0,0,0,.2-.34l5.94-12.74A3.41,3.41,0,0,0,125.68,99.92Z" transform="translate(-32.17 -20.03)"/><circle class="cls-8" cx="63.76" cy="187.36" r="16.05"/></svg>